<?xml version="1.0" standalone="no"?>
<!DOCTYPE svg PUBLIC "-//W3C//DTD SVG 20010904//EN"
 "http://www.w3.org/TR/2001/REC-SVG-20010904/DTD/svg10.dtd">
<svg version="1.0" xmlns="http://www.w3.org/2000/svg"
 width="430.000000pt" height="430.000000pt" viewBox="0 0 430.000000 430.000000"
 preserveAspectRatio="xMidYMid meet">
<metadata>
Created by potrace 1.14, written by Peter Selinger 2001-2017
</metadata>
<g transform="translate(0.000000,430.000000) scale(0.100000,-0.100000)"
fill="#000000" stroke="none">
<path d="M104 4242 c6 -9 1 -11 -19 -8 -20 4 -24 2 -16 -7 7 -9 7 -17 -1 -27
-8 -12 -9 -12 -4 3 3 10 2 16 -3 13 -5 -3 -11 -15 -14 -26 -3 -11 -1 -18 4
-14 12 7 11 -3 -1 -27 -10 -18 -3 -24 23 -20 4 1 3 -7 -2 -18 -6 -10 -7 -22
-3 -26 4 -5 2 -5 -5 -1 -6 3 -15 1 -19 -5 -4 -8 -3 -9 4 -5 8 5 12 -1 12 -14
0 -13 -4 -19 -12 -14 -7 4 -8 3 -4 -5 4 -6 11 -9 15 -7 4 3 8 -2 8 -10 0 -9
-6 -13 -15 -9 -12 4 -13 3 -2 -10 7 -8 9 -15 4 -15 -5 0 0 -7 10 -15 11 -8 14
-15 7 -15 -7 0 -9 -5 -5 -12 4 -7 3 -8 -5 -4 -6 4 -8 12 -5 18 4 6 2 8 -4 5
-5 -4 -8 -16 -5 -27 3 -11 10 -17 16 -13 6 3 7 1 3 -5 -4 -7 -1 -12 6 -12 10
0 9 -3 -2 -10 -9 -6 -17 -5 -22 3 -4 7 -6 3 -5 -10 0 -12 4 -20 8 -17 4 2 9
-5 12 -16 3 -11 1 -18 -4 -14 -5 3 -9 0 -9 -5 0 -6 3 -11 8 -11 4 0 7 -14 7
-30 1 -24 -3 -29 -15 -25 -11 5 -12 3 -3 -6 6 -6 9 -18 6 -27 -4 -10 -2 -13 5
-8 7 4 9 -2 5 -21 -3 -16 -5 -36 -5 -46 0 -10 -4 -15 -10 -11 -6 4 -6 -2 2
-15 6 -12 16 -18 22 -15 7 4 8 3 4 -5 -4 -6 -11 -9 -16 -6 -5 3 -12 1 -15 -5
-4 -6 -1 -9 6 -8 6 2 14 -3 16 -10 3 -8 -2 -10 -14 -6 -17 5 -17 5 0 -9 16
-13 16 -15 2 -21 -11 -4 -14 -12 -10 -26 4 -12 1 -29 -6 -38 -11 -14 -11 -15
1 -4 20 17 35 15 20 -3 -10 -12 -10 -15 1 -15 11 0 11 -2 -1 -10 -11 -7 -12
-10 -2 -10 10 0 9 -4 -3 -16 -15 -15 -15 -18 1 -41 9 -14 11 -22 5 -19 -6 4
-11 2 -11 -3 0 -6 5 -11 10 -11 6 0 10 -8 10 -17 0 -14 -2 -15 -9 -5 -6 11 -9
9 -13 -6 -4 -14 -2 -19 6 -16 7 3 13 -2 13 -11 0 -10 -6 -14 -16 -10 -12 5
-13 3 -4 -6 6 -6 9 -18 6 -27 -4 -10 -2 -13 5 -8 12 7 7 -36 -8 -65 -6 -10 -6
-19 -1 -21 5 -2 12 -21 15 -43 4 -24 3 -35 -3 -27 -6 11 -9 9 -13 -6 -4 -16
-2 -19 10 -15 10 4 13 2 8 -5 -3 -6 2 -15 11 -21 24 -14 7 -14 -19 0 -16 9
-19 8 -12 -3 14 -23 15 -50 2 -43 -7 4 -5 0 5 -8 14 -11 15 -16 5 -20 -10 -4
-10 -6 0 -6 10 -1 10 -4 0 -15 -7 -8 -17 -12 -23 -9 -5 2 -1 -2 9 -11 10 -8
24 -12 30 -9 6 4 5 -1 -2 -10 -8 -9 -10 -22 -6 -28 4 -8 3 -9 -4 -5 -7 4 -12
2 -12 -3 0 -6 5 -11 10 -11 6 0 10 -5 10 -11 0 -5 -4 -8 -9 -5 -5 3 -11 -1
-14 -9 -4 -10 -1 -12 11 -8 9 3 14 3 10 -2 -4 -4 -2 -15 5 -23 10 -13 9 -14
-13 -2 -19 9 -22 10 -13 0 6 -7 9 -19 6 -28 -4 -10 -2 -13 5 -8 7 4 9 -2 5
-21 -3 -16 -6 -34 -6 -40 0 -7 -5 -13 -11 -13 -7 0 -7 -3 0 -8 7 -4 15 -25 18
-47 4 -24 3 -35 -3 -27 -6 11 -9 9 -13 -6 -4 -14 -2 -19 6 -16 7 3 13 -2 13
-11 0 -9 -6 -14 -14 -11 -9 4 -11 2 -6 -7 4 -6 8 -16 8 -22 1 -5 7 -9 15 -7
10 2 11 0 2 -11 -7 -8 -8 -18 -4 -22 4 -5 1 -5 -5 -1 -8 4 -13 1 -13 -9 0 -10
5 -13 12 -9 6 4 8 3 4 -4 -3 -5 0 -13 6 -15 10 -4 10 -6 0 -6 -7 -1 -10 -7 -7
-13 4 -7 -1 -4 -9 6 -18 23 -21 14 -5 -15 5 -11 15 -16 21 -13 7 4 8 3 4 -5
-4 -6 -11 -9 -16 -6 -4 3 -14 -3 -21 -13 -12 -15 -12 -16 2 -5 18 14 29 8 29
-16 0 -14 -2 -14 -10 -1 -8 12 -10 10 -10 -8 0 -13 4 -21 8 -18 5 3 9 -2 9
-10 0 -9 -6 -13 -14 -10 -9 4 -11 2 -6 -7 13 -22 14 -49 1 -42 -7 4 -4 -1 6
-9 15 -12 16 -16 5 -16 -12 0 -12 -2 0 -9 8 -5 16 -17 17 -25 1 -9 -2 -14 -7
-10 -5 3 -7 10 -4 15 4 5 2 9 -3 9 -5 0 -12 -9 -15 -20 -3 -10 0 -18 5 -17 6
1 11 -8 13 -20 1 -12 -3 -19 -8 -16 -5 3 -7 0 -5 -8 3 -8 1 -23 -5 -34 -10
-19 -9 -19 8 -5 17 14 18 13 12 -3 -4 -10 -7 -21 -7 -23 0 -3 -4 -3 -8 0 -4 2
-8 -5 -8 -16 0 -20 0 -20 17 1 9 11 19 17 23 14 3 -3 -2 -12 -12 -19 -15 -12
-15 -15 -2 -24 11 -7 11 -10 2 -10 -7 0 -10 -5 -6 -12 4 -7 3 -8 -5 -4 -6 4
-8 12 -5 18 4 6 2 8 -4 5 -5 -4 -8 -16 -5 -27 3 -11 10 -17 16 -13 6 3 7 1 3
-5 -4 -7 -1 -12 6 -12 10 0 9 -3 -2 -10 -9 -6 -17 -5 -22 3 -4 7 -6 3 -5 -10
0 -12 4 -20 8 -17 4 2 9 -5 12 -16 3 -11 1 -18 -4 -14 -5 3 -9 0 -9 -5 0 -6 5
-11 10 -11 6 0 10 -5 10 -11 0 -5 -4 -8 -9 -5 -5 3 -11 -1 -14 -9 -4 -10 -1
-12 11 -8 15 6 15 5 3 -10 -7 -9 -10 -17 -6 -17 4 0 1 -8 -6 -17 -10 -11 -10
-14 -2 -9 8 4 13 2 13 -4 0 -6 5 -8 12 -4 10 6 10 5 1 -8 -7 -8 -9 -19 -5 -23
4 -5 1 -5 -5 -1 -7 4 -13 3 -13 -2 0 -6 7 -13 16 -16 11 -4 13 -10 6 -19 -5
-6 -9 -24 -8 -39 1 -14 -2 -24 -6 -22 -4 3 -8 0 -8 -5 0 -6 5 -11 10 -11 7 0
7 -6 0 -20 -6 -11 -8 -20 -4 -20 3 0 1 -7 -6 -15 -11 -13 -10 -14 6 -9 16 6
17 5 7 -7 -18 -18 -16 -27 4 -32 15 -4 16 -5 2 -6 -9 0 -19 -12 -21 -25 -3
-16 -1 -23 8 -19 6 2 15 -1 19 -7 3 -6 3 -10 -2 -9 -4 1 -15 1 -23 0 -13 -1
-13 -3 0 -10 8 -6 19 -7 25 -3 5 3 4 -2 -3 -11 -8 -9 -10 -22 -6 -28 5 -8 3
-9 -6 -4 -9 5 -10 2 -6 -13 15 -46 14 -62 -2 -72 -16 -9 -15 -9 2 -10 12 0 16
-5 12 -16 -5 -13 -1 -15 20 -10 14 4 23 3 20 -2 -3 -5 1 -9 9 -9 8 0 13 3 10
5 -3 3 3 11 13 19 9 8 11 11 3 7 -9 -5 -12 -3 -7 4 5 9 13 9 26 2 16 -9 18 -7
15 12 -4 16 -2 19 7 10 7 -7 17 -12 23 -12 5 0 3 4 -5 10 -12 8 -12 10 3 16 9
3 14 11 10 18 -4 6 1 5 10 -3 15 -12 17 -12 11 4 -5 13 -4 16 4 11 7 -4 12 -1
12 8 0 15 38 42 52 38 4 -1 5 8 3 19 -4 18 -2 19 13 8 9 -7 14 -9 10 -5 -4 5
0 15 10 23 9 8 11 11 3 7 -10 -5 -12 -3 -7 5 5 7 14 10 21 8 14 -6 43 24 38
40 -2 6 1 15 8 19 8 4 9 3 5 -4 -12 -19 2 -14 26 10 19 19 20 21 2 15 -18 -7
-18 -6 -2 6 10 8 14 18 10 22 -4 4 3 2 16 -4 12 -7 21 -8 21 -4 -3 11 19 63
26 63 4 0 3 -6 0 -12 -4 -7 0 -5 8 4 8 10 17 15 20 11 6 -6 11 19 8 39 0 4 5
5 13 2 8 -3 17 0 22 7 4 7 3 10 -3 6 -5 -3 -10 0 -10 7 0 7 8 11 17 9 9 -2 23
4 31 13 12 16 12 17 -1 10 -8 -4 -6 0 4 8 11 9 16 16 11 16 -5 0 2 11 15 25
12 13 27 22 32 19 5 -3 7 0 6 8 -2 7 2 12 8 11 7 -1 10 6 7 17 -3 12 0 20 6
20 7 0 9 -5 5 -12 -5 -7 -3 -8 5 -4 7 5 10 14 7 22 -3 8 -1 14 5 14 6 0 8 7 5
16 -3 8 -2 13 2 10 12 -7 45 22 37 33 -3 6 1 11 9 11 8 0 18 4 21 10 4 6 -1 7
-12 4 -12 -4 -10 0 7 14 13 11 29 18 34 15 5 -3 6 -1 2 6 -4 6 -12 8 -18 5 -7
-5 -8 -2 -4 5 5 7 15 10 23 6 14 -5 14 -3 2 12 -7 10 -10 15 -5 11 15 -12 35
15 25 34 -8 14 -6 16 7 11 13 -5 15 -3 9 7 -6 10 -4 12 10 6 15 -5 16 -4 5 9
-10 12 -10 15 0 15 7 0 10 6 7 14 -4 9 2 12 20 10 19 -2 23 0 14 9 -9 9 -6 16
11 30 13 10 18 16 11 13 -6 -4 -15 -1 -19 5 -4 8 -3 9 4 5 7 -4 12 -3 12 3 0
6 7 7 17 4 11 -4 14 -3 9 5 -4 7 -2 12 3 12 6 0 11 5 11 11 0 5 -5 7 -12 3 -7
-4 -8 -3 -4 4 4 7 14 12 21 12 13 0 28 19 36 45 2 6 9 9 16 7 8 -2 10 3 7 13
-4 9 -3 15 2 13 14 -4 84 52 81 65 -1 7 4 11 11 9 8 -1 11 2 7 8 -3 5 -1 10 5
10 6 0 8 5 4 13 -5 7 0 6 11 -3 11 -9 16 -10 11 -3 -4 7 -2 21 4 30 11 16 11
16 6 1 -3 -10 -1 -20 5 -23 5 -4 9 -3 8 2 -4 22 3 32 20 28 14 -3 18 1 14 11
-3 9 1 14 12 14 10 0 13 4 9 13 -5 7 0 6 11 -3 17 -14 18 -13 12 4 -6 16 -5
17 8 6 12 -10 15 -9 15 6 0 16 2 16 9 4 6 -8 8 -17 5 -21 -6 -10 24 -5 33 6 4
4 3 5 -4 1 -6 -3 -14 -3 -17 2 -2 4 6 8 19 8 13 0 21 -4 18 -9 -3 -5 4 -6 17
-2 13 4 20 3 17 -2 -4 -5 0 -10 8 -10 8 0 12 4 9 9 -3 4 0 8 5 8 6 0 11 -4 11
-10 0 -5 11 -10 24 -10 14 0 28 -5 32 -12 4 -7 3 -8 -4 -4 -7 4 -12 3 -12 -3
0 -6 12 -8 29 -5 23 5 30 2 36 -14 3 -13 12 -19 20 -15 8 3 12 10 8 16 -3 6
-1 7 6 3 6 -4 9 -11 6 -16 -5 -8 33 -26 48 -22 4 1 10 -5 13 -13 3 -8 11 -12
18 -8 6 4 6 0 -2 -9 -10 -13 -10 -16 0 -15 32 1 49 -4 43 -13 -5 -9 -1 -11 20
-10 9 1 35 -28 35 -39 0 -6 7 -7 17 -4 9 4 14 2 11 -3 -3 -5 16 -29 41 -54 24
-25 35 -33 23 -19 -12 14 -22 29 -22 34 0 5 14 -10 32 -33 18 -23 38 -42 46
-42 7 0 10 -4 7 -10 -4 -6 1 -7 11 -3 14 5 16 3 11 -12 -6 -15 -5 -16 7 -6 13
11 15 9 11 -9 -4 -19 -2 -20 12 -8 12 9 15 9 9 1 -4 -8 -1 -13 9 -13 9 0 13
-4 10 -10 -3 -5 2 -10 12 -10 15 0 16 -2 3 -10 -12 -8 -9 -10 11 -10 20 0 30
-7 39 -29 7 -19 17 -28 26 -24 9 3 14 -1 14 -12 0 -11 5 -15 16 -11 8 3 13 2
11 -2 -2 -4 8 -18 21 -32 14 -14 21 -19 17 -11 -6 10 -4 12 4 7 9 -6 9 -11 1
-21 -9 -11 -6 -13 15 -11 19 3 23 0 15 -9 -8 -10 -8 -15 1 -21 8 -4 9 -3 5 4
-4 7 -2 12 3 12 6 0 11 -8 11 -18 0 -11 10 -27 22 -38 l23 -19 -20 24 -20 25
27 -20 c14 -10 26 -21 26 -24 -1 -21 4 -30 12 -25 6 3 10 -1 10 -9 0 -10 9
-16 23 -16 13 0 17 -3 11 -8 -17 -11 7 -32 37 -32 5 0 7 -5 4 -10 -3 -5 1 -10
10 -10 9 0 14 -4 11 -9 -3 -5 10 -16 29 -25 20 -10 35 -24 35 -34 0 -15 2 -15
10 -2 9 13 10 13 11 0 1 -8 0 -19 -1 -25 -1 -5 2 -7 6 -3 4 4 19 -1 33 -11 14
-10 32 -16 39 -14 7 3 21 -4 31 -16 10 -12 26 -21 36 -21 10 0 23 -7 30 -17 9
-13 14 -13 20 -3 5 9 4 11 -3 6 -7 -4 -12 -2 -12 4 0 7 7 9 16 6 9 -3 18 -6
20 -6 3 0 3 -3 1 -7 -3 -5 6 -9 20 -10 19 -1 22 1 12 8 -14 9 -4 12 43 12 10
0 14 5 11 13 -3 9 2 14 12 14 11 0 15 5 12 14 -4 10 -1 13 8 9 8 -3 12 -10 8
-16 -3 -6 6 -2 20 9 15 10 27 23 27 28 0 5 -10 1 -22 -10 l-23 -19 18 22 c11
12 27 20 38 18 25 -5 51 4 43 16 -10 16 9 9 22 -8 13 -17 14 -17 8 0 -3 9 -1
17 5 17 6 0 11 -4 11 -10 0 -5 5 -10 11 -10 5 0 8 4 5 8 -3 5 1 9 9 9 8 0 11
-5 8 -10 -4 -7 1 -8 12 -3 16 6 16 4 4 -11 -12 -14 -12 -16 0 -8 8 4 25 9 38
11 21 2 22 0 11 -14 -7 -9 -8 -13 -2 -9 7 4 15 0 18 -8 4 -13 10 -14 26 -5 15
8 18 8 14 -3 -2 -7 6 -22 18 -33 l23 -19 -18 21 c-14 17 -14 21 -3 21 8 0 14
-3 14 -6 -2 -13 15 -41 22 -36 7 5 23 -32 21 -48 -1 -4 8 -3 20 3 19 11 20 10
9 -10 -7 -13 -8 -20 -3 -17 4 3 17 -2 28 -10 17 -13 17 -15 2 -9 -11 3 -16 2
-12 -4 3 -6 14 -10 23 -10 15 0 15 -2 2 -10 -13 -8 -12 -10 4 -10 12 0 16 -5
12 -16 -3 -8 -2 -12 4 -9 6 3 10 1 10 -5 0 -6 5 -8 10 -5 5 3 10 -4 10 -15 0
-16 4 -20 16 -16 8 3 12 2 9 -4 -9 -15 17 -50 30 -40 8 7 11 3 11 -13 -1 -12
4 -21 11 -20 6 1 14 -4 17 -13 4 -10 2 -13 -6 -8 -7 4 -8 3 -4 -4 4 -7 12 -12
17 -12 17 0 36 -24 33 -43 -2 -15 0 -16 12 -6 11 9 14 8 16 -2 0 -8 2 -18 3
-24 2 -5 3 -14 4 -19 0 -5 9 -2 19 5 9 7 14 9 10 5 -4 -5 0 -15 10 -23 9 -8
11 -12 5 -8 -7 3 -13 2 -13 -4 0 -5 9 -13 20 -16 11 -3 20 -13 20 -21 0 -8 5
-12 10 -9 9 6 15 -8 11 -29 -1 -5 4 -4 12 3 12 9 15 8 13 -6 0 -10 5 -18 12
-19 23 -3 24 -4 13 -18 -9 -11 -7 -13 11 -12 17 1 22 -4 20 -18 -2 -11 1 -15
7 -11 6 3 11 -1 11 -10 0 -9 3 -14 8 -12 7 5 30 -15 35 -30 1 -5 5 -7 10 -6 4
2 7 -6 7 -18 0 -11 5 -17 10 -14 6 3 10 1 10 -5 0 -6 5 -8 10 -5 6 3 10 -1 10
-9 0 -9 5 -16 11 -16 5 0 7 -5 4 -10 -6 -9 16 -15 39 -11 5 1 3 -6 -4 -16 -8
-10 -10 -14 -5 -10 5 4 15 -3 23 -15 8 -14 11 -16 8 -5 -3 11 -2 15 4 12 6 -3
10 -15 10 -25 0 -10 4 -22 10 -25 6 -3 8 2 5 12 -3 10 0 8 6 -4 7 -13 16 -23
21 -23 5 0 6 -5 3 -10 -4 -6 -3 -10 2 -9 24 4 35 -2 29 -18 -4 -10 -4 -14 0
-10 7 7 44 -30 44 -45 0 -4 5 -8 11 -8 5 0 7 5 3 12 -4 7 -3 8 4 4 7 -4 12
-14 12 -22 0 -8 5 -14 11 -14 15 0 39 -26 32 -34 -6 -6 13 -10 31 -7 5 1 4 -5
-3 -13 -11 -13 -10 -15 8 -11 14 2 21 -1 21 -11 0 -9 -5 -12 -12 -8 -7 4 -8 3
-4 -4 5 -9 13 -9 27 -2 10 6 19 7 18 3 -4 -21 2 -33 16 -33 9 0 15 -9 15 -22
0 -19 2 -20 10 -8 8 13 10 12 10 -4 0 -12 5 -16 16 -12 8 3 13 2 10 -3 -3 -5
1 -12 10 -15 8 -3 12 -2 9 4 -3 6 -2 10 2 10 5 0 9 9 10 20 1 13 -2 18 -10 13
-7 -4 -6 0 2 10 11 14 11 17 0 17 -8 0 -6 6 7 16 10 8 14 13 7 10 -17 -9 -27
13 -13 29 10 11 10 15 1 15 -7 0 -9 5 -6 10 4 6 12 8 18 4 7 -3 3 2 -7 10 -11
9 -15 16 -10 16 6 0 11 7 11 15 0 8 -4 15 -9 15 -5 0 -6 5 -3 10 4 6 11 8 16
5 5 -3 6 1 3 9 -3 9 -11 13 -18 9 -6 -4 -5 1 3 11 13 15 13 19 0 27 -11 7 -11
9 0 9 9 0 10 4 4 13 -11 14 -10 94 2 120 4 10 2 24 -6 34 -10 12 -10 15 -1 9
15 -9 16 6 1 21 -8 8 -8 13 0 17 6 4 11 12 11 17 0 6 -6 7 -12 3 -10 -6 -10
-4 0 8 10 13 10 17 0 21 -8 3 -5 6 7 7 18 1 19 1 3 11 -10 5 -18 15 -18 22 0
7 4 6 10 -3 9 -13 10 -13 10 1 0 8 -6 21 -12 28 -10 11 -10 13 0 7 15 -9 16 6
1 21 -8 8 -8 13 0 17 6 4 11 12 11 17 0 6 -6 7 -12 3 -10 -6 -10 -4 0 8 10 13
10 17 0 21 -8 3 -5 6 6 6 19 1 19 1 1 15 -16 12 -17 16 -6 30 10 11 10 16 2
16 -7 0 -9 5 -6 10 4 6 12 8 18 4 7 -3 3 2 -7 10 -11 9 -15 16 -10 16 6 0 11
7 11 15 0 8 -4 15 -9 15 -5 0 -6 5 -3 10 4 6 11 8 16 5 5 -3 6 1 3 9 -3 9 -11
13 -18 9 -6 -4 -5 1 3 11 13 15 13 19 0 27 -10 6 -11 9 -1 9 8 0 10 5 6 12
-12 20 -13 57 -2 64 6 4 5 10 -3 15 -10 6 -11 9 -1 9 6 0 12 5 12 11 0 5 -6 7
-12 3 -10 -6 -10 -5 -1 7 6 8 11 19 11 24 0 6 -5 16 -11 24 -9 12 -9 13 1 7
15 -9 16 6 1 21 -8 8 -8 13 0 17 6 4 11 12 11 17 0 6 -6 7 -12 3 -10 -6 -10
-4 0 8 10 13 10 17 0 21 -10 4 -10 6 1 6 11 1 11 4 1 16 -10 12 -10 18 0 30
10 12 10 15 -1 15 -11 0 -11 2 1 10 13 9 13 11 0 20 -10 6 -11 10 -3 10 15 0
13 21 -2 32 -5 4 -1 8 10 8 19 1 19 1 2 11 -15 9 -16 13 -6 26 10 12 10 16 -2
24 -10 6 -11 9 -1 9 8 0 10 5 6 12 -12 20 -13 57 -2 64 6 4 5 10 -3 15 -10 6
-11 9 -1 9 6 0 12 5 12 11 0 5 -6 7 -12 3 -10 -6 -10 -4 0 7 6 7 12 17 12 22
0 4 -6 5 -12 1 -9 -5 -9 -2 1 9 11 14 11 17 0 17 -11 0 -11 2 1 10 13 9 13 11
0 20 -8 5 -10 10 -4 10 6 0 11 7 11 15 0 8 -4 15 -9 15 -5 0 -6 5 -3 10 4 6
11 8 16 5 5 -3 6 1 3 9 -3 9 -11 13 -18 9 -6 -4 -5 1 3 11 13 15 13 19 0 27
-10 6 -11 9 -1 9 8 0 10 5 5 13 -4 6 -8 33 -8 59 -1 40 2 45 14 35 12 -10 13
-9 2 11 -6 12 -9 27 -6 32 3 6 1 10 -5 10 -6 0 -8 5 -5 10 4 6 11 8 16 5 14
-9 11 2 -7 19 -8 9 -11 16 -5 16 6 0 11 5 11 11 0 5 -6 7 -12 3 -10 -6 -10 -4
0 7 6 7 12 17 12 22 0 4 -6 5 -12 1 -9 -5 -9 -2 1 9 9 12 10 17 2 17 -9 0 -9
5 -1 20 8 14 8 20 0 20 -6 0 -8 5 -5 10 4 6 11 8 16 5 5 -3 6 1 3 9 -3 9 -11
16 -18 16 -6 0 -4 5 4 10 11 7 11 10 2 10 -7 0 -10 5 -7 10 4 6 11 8 16 5 5
-3 6 1 3 9 -3 9 -11 13 -18 9 -6 -4 -5 1 3 10 9 12 10 17 2 17 -7 0 -9 5 -6
10 4 6 11 8 16 5 5 -3 6 1 3 9 -3 9 -9 14 -13 11 -4 -2 -8 2 -8 10 0 8 4 12 9
9 12 -8 10 10 -3 23 -8 8 -8 13 0 17 6 4 11 12 11 17 0 6 -6 7 -12 3 -10 -6
-10 -4 0 8 10 13 10 17 0 21 -8 3 -5 6 6 6 19 1 19 1 1 15 -16 12 -17 16 -6
30 10 11 10 16 2 16 -7 0 -9 5 -6 10 4 6 12 8 18 4 7 -3 3 2 -7 10 -11 9 -15
16 -10 16 6 0 11 7 11 15 0 8 -4 15 -9 15 -5 0 -6 5 -3 10 4 6 11 8 16 5 5 -3
6 1 3 9 -3 9 -11 13 -18 9 -6 -4 -5 1 3 11 13 15 13 19 0 27 -11 7 -11 9 0 9
9 0 10 4 4 13 -11 14 -10 94 2 120 4 10 2 24 -6 34 -10 12 -10 15 -1 9 15 -9
16 6 1 21 -8 8 -8 13 0 17 6 4 11 12 11 17 0 6 -6 7 -12 3 -10 -6 -10 -4 0 8
10 13 10 17 0 21 -8 3 -5 6 7 7 19 1 19 1 2 11 -14 8 -16 14 -6 25 9 11 9 14
0 14 -7 0 -9 5 -6 10 4 6 11 8 16 5 5 -3 6 1 3 9 -3 9 -11 13 -18 9 -6 -4 -5
1 3 10 9 12 10 17 2 17 -7 0 -9 5 -6 10 4 6 11 8 16 5 5 -3 6 1 3 9 -3 9 -10
14 -14 11 -9 -5 -3 41 6 57 3 4 0 8 -6 8 -6 0 -8 5 -5 10 4 6 11 8 16 5 5 -3
6 1 3 9 -3 9 -11 13 -18 9 -6 -4 -5 1 3 10 9 12 10 17 2 17 -7 0 -9 5 -6 10 4
6 11 8 16 5 5 -3 6 1 3 9 -3 9 -9 14 -13 11 -10 -5 -7 47 3 63 4 7 3 12 -2 12
-5 0 -9 7 -9 15 0 12 3 12 15 2 13 -10 14 -9 3 11 -6 12 -9 27 -6 32 3 6 1 10
-5 10 -6 0 -8 5 -5 10 4 6 11 8 16 5 5 -3 6 1 3 9 -3 9 -11 13 -17 9 -6 -4 -7
-1 -1 8 11 19 16 51 6 45 -4 -2 -8 8 -7 24 0 15 3 26 7 23 5 -2 8 0 8 6 0 5
-6 12 -12 14 -10 4 -9 6 1 6 11 1 11 4 0 18 -12 15 -12 16 4 10 21 -8 22 -3 1
17 -9 9 -11 16 -4 16 6 0 8 5 4 12 -5 7 -9 21 -9 30 -1 15 1 15 13 5 13 -10
14 -9 3 11 -6 12 -9 27 -5 33 4 6 0 15 -7 20 -10 6 -11 9 -1 9 6 0 12 5 12 11
0 5 -6 7 -12 3 -9 -5 -9 -2 1 9 7 9 10 17 6 17 -4 0 -2 7 5 15 11 13 10 14 -2
10 -9 -4 -15 0 -15 10 0 10 6 14 16 10 15 -5 15 -4 0 7 -9 7 -15 23 -14 35 1
19 -1 21 -13 10 -8 -6 -18 -11 -21 -10 -3 0 -5 -4 -3 -10 2 -6 -5 -3 -16 6
-11 11 -23 14 -26 9 -4 -6 -21 -7 -43 -2 -26 6 -40 5 -45 -3 -7 -11 -12 -4
-10 14 1 3 -5 6 -13 6 -8 0 -12 -4 -9 -9 3 -4 -7 -8 -21 -8 -18 0 -24 4 -19
13 6 10 4 10 -7 0 -14 -14 -53 -18 -45 -5 3 5 -1 9 -8 9 -8 0 -12 -7 -8 -15 3
-10 1 -13 -6 -9 -20 13 -93 16 -85 4 3 -7 -4 -3 -16 7 -22 20 -22 20 -16 0 6
-18 6 -18 -8 -2 -13 17 -15 16 -24 -4 -8 -19 -10 -20 -16 -4 -5 11 -3 15 5 10
7 -5 8 -3 3 5 -5 9 -10 10 -18 2 -14 -14 -50 -15 -42 -1 3 6 -1 7 -9 4 -9 -3
-13 -11 -9 -17 3 -5 1 -7 -5 -3 -17 10 -93 15 -86 5 3 -5 -2 -6 -10 -3 -9 3
-13 10 -10 15 3 5 -2 6 -11 3 -13 -5 -13 -9 -3 -23 12 -14 11 -14 -4 -3 -9 8
-22 11 -27 8 -5 -4 -13 -1 -17 5 -4 8 -3 9 4 5 7 -4 12 -2 12 3 0 14 -17 14
-25 1 -3 -5 -15 -10 -26 -10 -11 0 -17 4 -14 10 3 6 -1 7 -9 4 -9 -3 -13 -11
-9 -17 3 -5 1 -7 -5 -3 -20 12 -92 15 -85 3 3 -7 -4 -3 -16 7 -22 20 -22 20
-16 0 6 -18 6 -18 -8 -2 -13 17 -15 16 -24 -4 -8 -19 -10 -20 -16 -4 -5 11 -3
15 5 10 7 -5 8 -3 3 5 -5 9 -10 10 -18 2 -13 -13 -51 -15 -43 -3 2 4 -4 8 -14
9 -11 1 -22 -2 -25 -8 -3 -5 1 -6 9 -3 9 3 16 1 16 -4 0 -10 -23 -9 -77 3 -13
3 -23 1 -23 -5 0 -6 -5 -8 -10 -5 -6 4 -8 10 -6 14 3 4 -1 8 -9 8 -8 0 -12 -4
-9 -9 3 -4 -7 -8 -21 -8 -18 0 -24 4 -19 13 6 10 4 10 -7 0 -14 -14 -53 -18
-45 -5 3 5 -1 9 -8 9 -8 0 -12 -7 -8 -15 3 -10 1 -13 -6 -8 -17 10 -82 14 -82
4 0 -4 -5 -8 -11 -8 -5 0 -8 4 -5 8 3 5 -2 9 -10 9 -10 0 -11 -4 -4 -11 12
-12 14 -29 2 -22 -4 2 -6 -14 -4 -36 3 -23 8 -35 12 -28 4 6 6 -7 5 -29 -1
-23 -5 -44 -10 -49 -4 -4 -4 0 0 8 8 13 6 13 -8 1 -20 -16 -13 -33 11 -24 14
5 15 4 6 -8 -6 -8 -12 -22 -13 -31 0 -10 -2 -26 -2 -35 -1 -10 -6 -23 -11 -30
-6 -7 -2 -16 10 -25 18 -12 28 -53 10 -42 -4 3 -8 -2 -8 -11 0 -9 -4 -14 -9
-11 -5 4 -4 -5 2 -18 7 -13 16 -22 21 -19 5 4 6 1 2 -6 -5 -7 -15 -10 -23 -7
-8 3 -11 1 -8 -4 3 -6 12 -10 19 -10 14 0 15 -35 1 -47 -4 -5 -5 -2 0 6 5 9 4
12 -3 7 -17 -10 -15 -26 4 -26 8 0 12 -5 9 -10 -4 -6 -12 -7 -18 -3 -7 3 -3
-3 7 -16 16 -17 17 -24 7 -34 -10 -9 -11 -8 -6 6 5 10 2 17 -6 17 -7 0 -9 -3
-6 -7 4 -3 2 -12 -5 -20 -6 -8 -7 -13 -2 -12 21 4 35 -2 29 -11 -4 -6 -10 -8
-15 -5 -4 3 -7 -3 -5 -12 2 -10 4 -45 4 -78 1 -39 4 -55 10 -46 7 10 9 7 8
-12 -2 -24 -3 -25 -22 -9 -19 16 -19 16 -6 0 7 -10 11 -25 7 -33 -3 -9 -2 -13
4 -10 6 3 10 -1 10 -10 0 -10 -5 -13 -12 -9 -7 4 -8 3 -4 -5 4 -6 3 -18 -3
-25 -8 -9 -7 -13 4 -13 8 0 11 5 8 10 -3 6 -2 7 4 4 11 -7 10 -43 -2 -54 -4
-5 -5 -3 -1 4 3 6 2 14 -3 18 -10 6 -7 -27 4 -45 3 -6 -2 -7 -12 -4 -17 5 -17
5 0 -6 17 -11 25 -36 8 -26 -12 8 -2 -35 13 -53 8 -11 8 -13 0 -8 -7 4 -14 -2
-17 -13 -3 -11 0 -23 5 -27 7 -3 8 -1 4 5 -4 7 -2 12 3 12 20 0 11 -20 -11
-30 l-23 -9 23 0 c13 -1 20 -5 17 -11 -4 -6 -10 -8 -14 -6 -4 3 -8 -1 -8 -9 0
-8 4 -12 9 -9 4 3 8 -2 8 -11 0 -10 -5 -13 -12 -9 -8 5 -7 0 2 -11 14 -17 13
-18 -2 -12 -12 4 -15 2 -11 -8 3 -8 9 -13 13 -10 4 3 11 -2 14 -11 3 -8 2 -13
-3 -10 -5 3 -11 -1 -15 -9 -3 -8 -1 -17 5 -21 6 -3 3 -11 -8 -20 -17 -12 -17
-13 4 -9 16 3 20 0 16 -11 -3 -7 -8 -12 -12 -10 -3 2 -6 -6 -6 -19 0 -13 3
-21 8 -18 9 6 9 -1 -3 -31 -7 -20 -6 -24 5 -19 8 3 15 0 15 -6 0 -6 -6 -11
-13 -11 -7 0 -13 -10 -14 -22 0 -13 1 -17 4 -10 3 6 8 12 12 12 9 0 7 -68 -2
-75 -4 -3 -5 -2 -2 2 3 3 0 12 -6 20 -9 10 -8 13 1 13 8 0 11 3 7 6 -10 10
-28 -7 -20 -19 8 -12 9 -17 12 -38 0 -5 7 -7 14 -4 6 4 3 -1 -7 -9 -18 -15
-18 -16 -2 -16 9 0 14 -5 11 -10 -4 -6 -11 -7 -17 -4 -6 4 -6 -2 1 -15 10 -18
9 -20 -6 -15 -17 5 -17 5 0 -6 17 -11 25 -36 8 -26 -12 8 -2 -35 13 -53 8 -11
8 -13 0 -8 -7 4 -14 -2 -17 -13 -3 -11 0 -23 5 -27 7 -3 8 -1 4 5 -4 7 -2 12
3 12 20 0 11 -20 -11 -30 l-23 -9 23 0 c13 -1 20 -5 17 -11 -4 -6 -10 -8 -14
-6 -4 3 -8 -1 -8 -9 0 -8 4 -12 9 -9 4 3 8 -2 8 -11 0 -10 -5 -13 -12 -9 -8 5
-7 0 2 -11 14 -17 13 -18 -3 -12 -15 6 -16 4 -6 -14 6 -11 8 -26 6 -34 -3 -7
0 -18 6 -25 10 -10 8 -11 -8 -6 -18 7 -19 6 -4 -9 12 -13 14 -26 9 -57 -9 -47
-2 -80 14 -71 6 3 6 0 -1 -8 -16 -16 -17 -33 -2 -24 6 4 5 -2 -2 -13 -7 -12
-17 -18 -22 -15 -5 3 -3 9 4 14 9 5 4 8 -16 6 -25 -2 -30 2 -29 19 0 13 -4 20
-12 17 -6 -2 -15 1 -20 8 -4 8 -3 10 4 5 8 -5 10 -2 6 9 -5 13 -9 13 -22 3
-14 -12 -14 -10 -3 11 7 13 8 21 3 17 -12 -7 -54 42 -47 54 3 4 -3 10 -13 12
-10 3 -29 21 -41 39 l-23 34 32 -35 c22 -24 27 -27 16 -9 -23 37 -65 71 -79
62 -7 -4 -7 0 2 10 12 15 11 17 -5 17 -16 0 -17 2 -4 10 12 8 12 10 -5 10 -11
0 -26 10 -34 23 l-14 22 24 -20 24 -20 -18 21 c-9 11 -14 23 -11 26 3 3 -3 5
-13 4 -10 0 -17 5 -15 12 1 6 -6 12 -15 12 -15 0 -16 2 -3 10 13 8 12 10 -2
10 -10 0 -18 6 -18 14 0 8 -9 21 -20 29 -11 8 -17 17 -12 22 4 4 -2 5 -12 1
-16 -5 -17 -4 -6 9 11 13 10 14 -4 9 -13 -5 -15 -2 -10 12 4 11 4 16 0 12 -10
-8 -36 14 -29 25 2 4 -3 7 -13 7 -14 0 -15 2 -3 18 7 9 9 13 4 9 -5 -4 -15 3
-23 15 -8 14 -11 16 -8 5 4 -11 2 -16 -5 -11 -6 3 -8 15 -6 26 5 16 3 17 -9 7
-12 -10 -13 -9 -8 6 5 13 4 16 -4 11 -8 -5 -12 0 -12 13 0 19 -11 26 -34 22
-5 -1 -3 5 4 14 7 8 10 18 6 22 -3 3 -6 1 -6 -5 0 -7 -11 -2 -25 10 -14 12
-25 30 -25 39 0 10 -5 21 -12 25 -7 4 -8 3 -4 -4 5 -8 1 -10 -10 -5 -15 6 -15
7 2 21 18 13 18 14 -3 8 -19 -6 -21 -4 -18 14 3 18 1 20 -10 10 -10 -8 -15 -8
-21 1 -4 8 -3 9 4 5 19 -11 14 5 -6 21 -11 10 -12 12 -2 8 8 -4 6 1 -4 9 -11
9 -25 16 -30 16 -6 0 -4 5 4 11 12 9 10 10 -8 6 -19 -4 -21 -3 -12 8 9 11 7
17 -9 27 -12 7 -21 18 -21 25 0 7 -8 13 -17 13 -10 0 -23 12 -30 26 -9 20 -9
24 1 17 6 -4 2 1 -11 12 -13 12 -23 26 -23 32 0 6 -7 13 -15 17 -8 3 -15 12
-15 21 0 8 -5 15 -11 15 -6 0 -17 6 -25 14 -11 11 -11 16 -1 19 7 3 4 6 -6 6
-10 1 -16 5 -13 9 3 5 -4 15 -15 22 -10 8 -19 20 -19 28 0 7 -5 10 -10 7 -5
-3 -10 1 -10 9 0 9 -4 16 -10 16 -5 0 -10 6 -10 14 0 8 -5 18 -12 22 -7 5 -8
3 -3 -7 8 -12 6 -12 -8 0 -18 15 -23 26 -7 16 6 -3 10 -1 10 4 0 6 -4 11 -10
11 -5 0 -10 7 -10 16 0 13 -3 14 -15 4 -12 -10 -14 -8 -10 9 3 16 -1 21 -16
21 -10 0 -19 5 -19 11 0 5 5 7 10 4 6 -3 10 -2 10 3 0 5 -10 12 -21 15 -14 4
-20 11 -16 21 3 8 1 18 -5 22 -7 4 -8 3 -4 -4 4 -7 2 -12 -3 -12 -6 0 -11 9
-11 20 0 12 -7 20 -17 20 -9 0 -13 3 -9 7 3 4 -4 13 -16 21 -13 7 -15 11 -6 8
21 -6 13 20 -8 28 -10 4 -13 1 -9 -7 4 -6 -3 -1 -14 13 -11 14 -21 31 -21 38
0 7 -4 10 -10 7 -5 -3 -10 3 -10 15 0 12 -5 18 -10 15 -5 -3 -10 3 -10 14 0
12 -5 21 -11 21 -5 0 -7 -5 -3 -12 4 -7 3 -8 -4 -4 -6 4 -9 13 -6 20 3 8 -4
20 -15 28 -12 8 -18 18 -13 23 4 4 -1 5 -10 2 -10 -3 -17 -3 -17 1 3 20 -2 33
-11 27 -5 -3 -10 3 -10 14 0 12 -5 21 -11 21 -7 0 -9 9 -6 23 6 21 6 21 -8 3
-14 -19 -15 -19 -15 -1 0 10 -17 33 -37 52 -22 20 -30 31 -18 26 17 -6 18 -5
5 9 -8 9 -18 14 -22 11 -5 -2 -8 1 -8 7 0 6 -5 8 -10 5 -6 -4 -10 -3 -9 2 4
22 -2 43 -11 38 -5 -3 -10 1 -10 9 0 9 -7 16 -16 16 -8 0 -12 5 -9 10 3 6 1
10 -5 10 -6 0 -8 5 -5 10 3 6 -1 10 -9 10 -9 0 -16 5 -16 11 0 5 -5 7 -12 3
-7 -4 -8 -3 -4 4 4 6 14 9 24 6 9 -3 6 1 -8 9 -14 9 -29 13 -35 9 -5 -3 -3 3
5 13 14 17 13 18 -2 13 -10 -4 -19 -1 -22 8 -3 8 -11 14 -17 14 -8 0 -7 -6 2
-17 13 -16 12 -17 -3 -5 -9 8 -22 11 -27 8 -5 -4 -13 -1 -17 5 -4 8 -3 9 4 5
7 -4 12 -2 12 3 0 14 -17 14 -25 1 -3 -5 -15 -10 -26 -10 -11 0 -18 4 -15 8 2
4 -4 8 -14 9 -11 1 -22 -2 -25 -8 -3 -5 1 -6 9 -3 9 3 16 1 16 -4 0 -10 -24
-9 -78 4 -15 3 -21 1 -17 -5 3 -7 0 -8 -9 -5 -9 3 -16 10 -16 16 0 5 -5 6 -10
3 -6 -4 -7 -11 -4 -17 5 -7 2 -8 -6 -3 -7 4 -15 2 -20 -5 -5 -8 -9 -7 -13 5
-5 10 -3 14 5 9 7 -5 8 -3 3 5 -5 9 -10 10 -18 2 -13 -13 -51 -15 -43 -3 3 5
-1 9 -8 9 -8 0 -12 -7 -8 -15 3 -10 1 -13 -6 -9 -17 11 -93 16 -86 6 3 -5 -2
-6 -10 -3 -9 3 -14 9 -11 13 2 4 -2 8 -10 8 -8 0 -12 -4 -9 -9 3 -4 -7 -8 -23
-8 -22 0 -25 2 -13 10 9 6 10 10 3 10 -6 0 -15 -4 -18 -10 -3 -5 -15 -10 -26
-10 -11 0 -18 4 -15 8 2 4 -4 8 -14 9 -11 1 -22 -2 -25 -8 -3 -5 1 -6 9 -3 9
3 16 1 16 -4 0 -10 -24 -9 -78 4 -15 3 -21 1 -17 -5 3 -7 0 -8 -9 -5 -9 3 -16
9 -16 13 0 4 -7 8 -15 8 -12 0 -12 -3 -2 -16 10 -12 9 -13 -1 -7 -7 4 -19 3
-26 -3 -9 -8 -13 -7 -13 4 0 8 5 11 10 8 6 -3 7 -1 3 6 -5 7 -12 9 -19 3 -7
-5 -22 -12 -35 -15 -20 -5 -21 -3 -10 10 11 14 11 15 -8 5 -12 -6 -38 -10 -58
-8 -24 1 -40 -3 -45 -12 -6 -10 -10 -11 -15 -3 -4 6 -2 11 3 11 6 0 11 5 11
10 0 7 -6 7 -20 0 -14 -8 -20 -8 -20 0 0 6 -5 8 -10 5 -6 -4 -7 -11 -4 -17 4
-5 -5 -2 -20 7 -18 12 -26 14 -26 5 0 -9 -4 -9 -17 1 -12 10 -15 11 -9 1z
m2760 -313 c-3 -5 -10 -7 -15 -3 -5 3 -7 10 -3 15 3 5 10 7 15 3 5 -3 7 -10 3
-15z m6 -89 c0 -5 -2 -10 -4 -10 -3 0 -8 5 -11 10 -3 6 -1 10 4 10 6 0 11 -4
11 -10z m-2 -245 c-3 -3 -9 2 -12 12 -6 14 -5 15 5 6 7 -7 10 -15 7 -18z
m-2788 -49 c0 -2 -7 -6 -15 -10 -8 -3 -15 -1 -15 4 0 6 7 10 15 10 8 0 15 -2
15 -4z m0 -120 c0 -2 -7 -7 -16 -10 -8 -3 -12 -2 -9 4 6 10 25 14 25 6z m2014
-344 c3 -5 -1 -9 -9 -9 -8 0 -12 4 -9 9 3 4 7 8 9 8 2 0 6 -4 9 -8z m-974
-635 c0 -2 -15 -14 -32 -27 l-33 -23 24 26 c21 23 41 35 41 24z m1748 -52 c-3
-3 -9 2 -12 12 -6 14 -5 15 5 6 7 -7 10 -15 7 -18z m2 -155 c0 -5 -2 -10 -4
-10 -3 0 -8 5 -11 10 -3 6 -1 10 4 10 6 0 11 -4 11 -10z m-2790 -390 c-6 -11
-13 -20 -16 -20 -2 0 0 9 6 20 6 11 13 20 16 20 2 0 0 -9 -6 -20z m2430 -130
c0 -5 -2 -10 -4 -10 -3 0 -8 5 -11 10 -3 6 -1 10 4 10 6 0 11 -4 11 -10z
m-2137 -175 c-3 -9 -8 -14 -10 -11 -3 3 -2 9 2 15 9 16 15 13 8 -4z"/>
<path d="M2843 4105 c0 -8 4 -12 9 -9 5 3 6 10 3 15 -9 13 -12 11 -12 -6z"/>
<path d="M1710 2386 c0 -2 7 -7 16 -10 8 -3 12 -2 9 4 -6 10 -25 14 -25 6z"/>
<path d="M1352 2330 c-34 -21 -58 -28 -32 -9 13 9 13 10 0 6 -8 -2 -14 -12
-14 -21 1 -12 -3 -15 -17 -11 -11 4 -18 3 -17 -2 4 -17 -14 -53 -27 -53 -21 0
-28 -19 -13 -37 10 -14 10 -15 0 -9 -18 11 -51 -21 -45 -43 3 -11 -1 -22 -8
-26 -7 -5 -10 -4 -5 3 3 6 1 14 -6 18 -7 4 -10 4 -6 -1 5 -5 -4 -23 -18 -42
-14 -18 -21 -33 -17 -33 4 0 1 -5 -7 -10 -13 -9 -13 -10 0 -10 12 -1 11 -3 -3
-11 -9 -5 -22 -7 -27 -4 -6 4 -10 3 -9 -2 4 -16 -28 -73 -36 -66 -5 5 -3 0 4
-10 12 -15 12 -17 -2 -12 -8 4 -18 1 -23 -6 -5 -8 -3 -10 5 -4 10 5 9 2 0 -13
-7 -12 -16 -19 -20 -17 -3 3 -5 -7 -3 -20 1 -14 -2 -27 -7 -31 -5 -3 -6 -10
-3 -16 4 -7 2 -8 -5 -4 -9 6 -9 11 -1 21 8 10 8 15 -1 21 -7 4 -9 3 -5 -4 3
-6 2 -13 -3 -17 -5 -3 -8 -14 -6 -25 2 -11 -1 -20 -7 -20 -5 0 -7 -7 -4 -16 3
-8 2 -12 -4 -9 -14 9 -12 -8 3 -24 10 -11 9 -12 -2 -6 -11 6 -13 4 -7 -10 5
-15 4 -16 -8 -6 -11 9 -16 9 -22 0 -4 -7 -3 -9 3 -6 6 4 14 0 17 -9 3 -8 2
-12 -4 -9 -6 3 -10 -3 -10 -14 0 -11 -5 -23 -12 -27 -7 -5 -5 -12 8 -22 18
-14 18 -14 1 -8 -12 4 -17 2 -15 -6 3 -7 -3 -34 -13 -61 -13 -35 -14 -45 -4
-37 10 8 15 8 21 -1 4 -8 3 -9 -4 -5 -7 4 -12 3 -12 -3 0 -5 -8 -12 -17 -14
-16 -4 -15 -5 1 -6 20 -1 20 -1 0 -15 -18 -14 -18 -15 -1 -21 22 -9 22 -26 0
-19 -15 5 -16 4 -3 -5 8 -6 15 -15 15 -21 0 -12 5 -13 27 -5 10 4 15 12 11 19
-4 7 -2 7 8 -1 17 -14 39 0 39 25 0 7 5 10 12 6 7 -5 9 -2 6 8 -5 11 0 15 15
14 15 -1 21 4 19 16 -1 9 3 20 9 24 8 5 9 3 4 -7 -7 -11 -6 -12 7 -2 8 7 18
10 21 6 4 -3 7 0 7 7 0 7 3 10 6 7 4 -4 1 -13 -5 -21 -10 -12 -9 -14 8 -9 15
4 21 1 21 -11 0 -9 6 -16 13 -16 8 0 7 -4 -3 -10 -13 -9 -8 -14 11 -12 4 1 5
-8 2 -18 -3 -11 0 -20 6 -20 6 0 11 -9 11 -20 0 -11 6 -20 13 -20 8 0 7 -4 -3
-10 -13 -8 -13 -10 -1 -10 12 0 12 -3 3 -12 -7 -7 -12 -17 -12 -23 0 -5 5 -3
10 5 7 11 10 11 10 2 0 -8 5 -10 13 -6 9 5 9 4 0 -6 -9 -10 -7 -17 7 -33 11
-11 16 -25 12 -31 -10 -17 -11 -35 -1 -42 5 -3 7 -10 4 -15 -3 -5 0 -6 8 -3 8
3 17 -2 20 -10 4 -11 1 -13 -11 -10 -16 5 -16 4 0 -9 10 -8 15 -17 12 -20 -4
-3 -3 -14 1 -24 7 -17 13 -41 17 -70 1 -9 5 -10 14 -2 9 8 11 5 7 -12 -5 -16
-3 -20 6 -14 10 6 11 3 2 -13 -7 -14 -8 -23 -1 -27 5 -3 10 -15 10 -26 0 -14
4 -18 13 -13 8 5 8 2 -2 -9 -10 -13 -10 -17 -1 -17 7 0 10 -8 7 -20 -3 -11 -1
-23 5 -26 5 -3 7 -13 3 -21 -4 -13 -3 -14 9 -4 11 9 16 9 22 0 4 -7 3 -9 -3
-6 -12 8 -22 -12 -16 -31 3 -6 10 -9 16 -5 7 4 6 -1 -2 -10 -12 -15 -11 -17 2
-17 11 0 14 -5 10 -17 -4 -10 -2 -14 4 -10 5 3 10 0 10 -8 0 -8 -3 -12 -7 -10
-4 2 -7 -3 -7 -11 0 -8 6 -13 13 -10 9 3 11 -1 7 -11 -4 -10 -2 -14 4 -10 6 4
13 -5 16 -20 5 -26 4 -26 -9 -8 -8 10 -14 14 -14 7 0 -6 9 -17 21 -25 15 -11
17 -16 7 -20 -9 -4 -7 -6 4 -6 12 -1 15 -6 11 -18 -4 -9 -2 -14 3 -10 6 3 16
-4 24 -16 12 -20 12 -21 -4 -8 -14 12 -16 12 -10 -3 6 -15 17 -20 36 -17 4 0
4 -7 1 -16 -5 -12 -3 -14 8 -8 11 7 11 5 -1 -10 -14 -17 -13 -18 4 -12 17 7
17 6 5 -10 -9 -11 -10 -14 -1 -9 7 4 12 2 12 -4 0 -7 6 -10 14 -7 10 4 12 0 9
-14 -3 -11 0 -19 6 -19 7 0 9 -5 5 -12 -5 -9 -2 -8 9 1 15 12 17 12 11 -4 -5
-13 -4 -16 4 -11 8 5 10 1 5 -10 -5 -14 -3 -16 12 -10 11 4 17 4 13 1 -8 -8
34 -53 45 -48 4 2 7 0 7 -6 0 -5 -6 -12 -12 -14 -8 -4 -7 -6 4 -6 9 -1 19 5
21 12 5 11 11 -18 8 -36 -1 -5 3 -6 9 -2 5 3 10 1 10 -4 0 -6 6 -10 13 -9 6 2
11 -2 10 -8 -1 -5 8 -16 20 -24 20 -12 21 -12 8 4 -12 14 -12 16 3 10 9 -3 16
-10 16 -16 0 -5 5 -6 10 -3 6 4 7 12 3 18 -4 7 2 5 12 -3 17 -14 18 -14 7 7
-9 16 -9 24 0 29 7 5 8 3 3 -7 -5 -8 -4 -11 1 -6 5 5 9 26 10 47 0 34 -2 37
-15 27 -12 -10 -13 -9 -7 2 5 8 3 17 -5 23 -10 7 -7 8 11 4 22 -4 23 -4 8 8
-12 9 -14 16 -7 23 8 8 7 13 -2 18 -8 6 -10 4 -4 -5 5 -9 4 -11 -3 -6 -9 5 -9
13 -2 27 9 15 7 21 -5 25 -8 3 -15 10 -15 16 0 5 5 6 12 2 6 -4 8 -3 4 4 -3 5
0 13 6 16 9 4 8 5 -2 5 -38 -3 -44 1 -25 15 18 13 17 14 -7 30 -18 12 -24 24
-22 42 2 21 -1 24 -19 20 -12 -3 -16 -3 -9 0 10 5 10 9 0 22 -7 9 -8 13 -2 9
6 -3 11 0 11 8 0 8 -7 17 -14 19 -9 4 -11 1 -7 -6 4 -7 3 -8 -5 -4 -9 6 -9 11
0 22 14 17 -2 19 -21 2 -12 -11 -12 -10 -2 4 10 12 10 18 1 24 -9 5 -7 11 6
21 17 12 17 13 2 13 -9 0 -17 7 -17 16 0 8 4 12 10 9 6 -3 7 1 4 10 -5 13 -9
13 -23 3 -14 -11 -14 -11 -4 3 7 9 14 29 15 45 1 16 7 33 13 37 5 5 1 6 -11 2
-25 -6 -27 15 -5 54 7 13 8 21 2 17 -6 -4 -11 -1 -11 8 0 8 8 20 18 25 14 8
14 11 2 12 -8 1 -19 1 -25 -1 -5 -1 -1 8 9 19 11 12 15 21 10 21 -5 0 -1 5 9
11 14 8 15 14 7 24 -8 10 -8 15 1 21 8 4 9 3 5 -4 -5 -8 -2 -10 9 -6 14 6 14
8 -2 20 -17 13 -17 13 1 14 12 0 16 5 12 16 -5 12 -2 15 9 10 10 -4 19 2 25
17 5 13 9 16 10 7 0 -12 3 -11 11 3 8 14 14 16 25 6 7 -6 11 -16 7 -22 -3 -6
-1 -7 6 -3 6 4 9 13 5 19 -3 7 2 3 10 -7 9 -11 16 -14 16 -7 0 7 5 9 10 6 6
-4 8 -10 6 -14 -3 -4 1 -8 9 -8 8 0 12 3 10 7 -2 4 2 7 10 7 8 0 12 -4 9 -9
-3 -4 0 -8 6 -8 6 0 8 -5 4 -12 -6 -10 -4 -10 8 0 13 10 18 10 24 1 4 -8 3 -9
-4 -5 -7 4 -12 5 -12 2 0 -3 10 -10 21 -17 17 -9 20 -8 14 2 -5 8 -4 10 3 5 7
-4 12 -15 12 -24 0 -15 2 -15 10 -2 6 10 10 11 10 3 0 -7 7 -13 16 -13 8 0 12
-5 8 -11 -4 -8 0 -9 15 -4 13 4 21 2 21 -5 0 -6 -4 -8 -10 -5 -5 3 -10 2 -10
-3 0 -6 16 -12 35 -14 28 -3 34 -1 30 10 -3 9 0 12 9 9 10 -4 14 0 11 14 -2
10 -7 24 -10 29 -3 6 1 10 9 10 9 0 16 5 16 11 0 5 -5 7 -12 3 -7 -4 -8 -3 -4
5 6 9 11 9 22 0 12 -10 13 -9 8 4 -6 16 19 18 33 2 4 -4 2 -5 -4 -1 -7 4 -13
5 -13 2 0 -3 10 -10 21 -17 15 -8 19 -8 15 0 -4 6 -2 11 3 11 6 0 11 -7 11
-15 0 -8 9 -15 20 -15 12 0 20 -7 20 -17 0 -15 2 -16 10 -3 5 8 10 10 10 4 0
-6 7 -11 15 -11 8 0 12 4 9 8 -6 10 32 50 40 42 3 -4 6 -1 6 6 0 7 5 9 13 5 7
-5 6 0 -3 11 -8 10 -10 16 -5 13 10 -6 37 16 29 24 -2 3 6 4 19 4 16 -1 21 4
19 17 -2 10 3 17 12 17 9 0 20 9 26 19 5 11 19 23 30 26 11 4 18 11 14 16 -8
13 25 49 56 61 19 7 21 11 10 18 -12 7 -12 11 0 25 12 14 12 16 -1 15 -26 -4
-40 0 -34 10 3 6 1 10 -5 10 -6 0 -8 4 -5 10 3 6 -1 7 -9 4 -9 -4 -16 -1 -16
6 0 7 -7 10 -17 6 -10 -4 -14 -4 -10 0 4 4 -6 15 -23 25 -21 13 -28 23 -23 35
4 11 2 15 -4 11 -13 -8 -43 2 -43 14 0 5 -9 18 -20 29 -11 11 -20 16 -20 10 0
-5 -10 0 -22 12 -13 13 -22 27 -20 32 2 5 -4 4 -12 -3 -12 -10 -14 -9 -9 10 4
15 3 20 -5 15 -7 -4 -15 0 -18 8 -3 9 -12 16 -20 16 -8 0 -14 7 -14 16 0 9 -5
14 -12 12 -14 -5 -74 61 -70 77 1 6 -10 17 -24 24 -16 7 -24 17 -20 26 3 8 -3
16 -15 20 -10 4 -19 10 -19 15 0 5 -9 12 -20 15 -11 3 -20 15 -20 25 0 16 -25
35 -42 32 -4 -1 -4 6 -1 15 4 10 2 14 -4 10 -6 -4 -14 0 -17 9 -3 9 -11 12
-18 8 -8 -5 -7 0 2 11 8 10 10 16 3 12 -13 -8 -53 12 -53 27 0 5 9 1 19 -8 14
-13 21 -14 27 -5 4 7 3 10 -3 6 -6 -4 -18 2 -28 13 -15 16 -21 18 -33 7 -13
-9 -14 -9 -8 1 4 6 3 12 -3 12 -5 0 -13 9 -16 20 -4 12 -15 20 -28 20 -14 0
-18 3 -10 8 9 6 6 11 -8 21 -17 10 -20 10 -13 -1 4 -7 -4 -2 -18 12 -13 14
-23 28 -21 32 2 4 -9 8 -24 10 -17 2 -32 12 -39 26 -8 17 -13 20 -17 10 -4 -9
-6 -8 -6 4 -1 9 -6 20 -13 24 -7 5 -9 2 -4 -7 4 -8 1 -6 -7 4 -8 9 -22 17 -31
17 -9 0 -21 11 -26 24 -6 17 -15 23 -27 20 -10 -3 -28 4 -41 16 -12 11 -22 18
-22 14 0 -3 -7 -1 -15 6 -12 10 -15 9 -15 -6 0 -16 -2 -17 -10 -4 -9 13 -11
13 -20 0 -5 -8 -10 -10 -10 -4 0 5 5 15 12 22 17 17 8 15 -30 -8z m-271 -343
c-10 -9 -11 -8 -5 6 3 10 9 15 12 12 3 -3 0 -11 -7 -18z m-120 -540 c-10 -9
-11 -8 -5 6 3 10 9 15 12 12 3 -3 0 -11 -7 -18z m256 -212 c0 -8 -4 -12 -9 -9
-5 3 -6 10 -3 15 9 13 12 11 12 -6z m413 -369 c0 -3 -4 -8 -10 -11 -5 -3 -10
-1 -10 4 0 6 5 11 10 11 6 0 10 -2 10 -4z m104 -304 c3 -5 -1 -9 -9 -9 -8 0
-12 4 -9 9 3 4 7 8 9 8 2 0 6 -4 9 -8z m37 -235 c-10 -9 -11 -8 -5 6 3 10 9
15 12 12 3 -3 0 -11 -7 -18z"/>
<path d="M1466 2318 c3 -5 10 -6 15 -3 13 9 11 12 -6 12 -8 0 -12 -4 -9 -9z"/>
<path d="M1646 2188 c3 -5 10 -6 15 -3 13 9 11 12 -6 12 -8 0 -12 -4 -9 -9z"/>
<path d="M745 1949 c-4 -6 -5 -12 -2 -15 2 -3 7 2 10 11 7 17 1 20 -8 4z"/>
<path d="M1980 1901 c0 -6 4 -13 10 -16 6 -3 7 1 4 9 -7 18 -14 21 -14 7z"/>
<path d="M2090 1767 c0 -2 15 -16 33 -33 l32 -29 -29 33 c-28 30 -36 37 -36
29z"/>
<path d="M49 1753 c0 -5 -2 -16 -4 -26 -2 -11 0 -16 3 -12 4 4 7 10 7 13 0 4
4 13 8 20 5 7 4 12 -2 12 -6 0 -11 -3 -12 -7z"/>
<path d="M2943 1552 c-13 -2 -23 -10 -23 -17 0 -8 -5 -17 -12 -21 -7 -5 -8 -3
-3 6 5 8 4 11 -3 6 -6 -4 -8 -14 -5 -23 4 -11 3 -14 -5 -9 -8 5 -10 1 -5 -10
5 -14 3 -16 -12 -11 -15 6 -16 5 -6 -7 11 -13 9 -15 -8 -11 -19 3 -20 1 -10
-17 8 -15 8 -19 0 -14 -6 4 -15 -3 -20 -17 -5 -13 -17 -27 -26 -31 -14 -5 -15
-9 -6 -20 8 -10 9 -16 1 -21 -6 -3 -7 -11 -4 -17 4 -7 2 -8 -5 -4 -9 6 -9 11
1 24 10 12 10 14 0 8 -6 -4 -19 -22 -28 -39 -13 -29 -13 -30 1 -13 19 25 19 8
0 -18 -8 -10 -12 -23 -8 -29 3 -6 1 -7 -6 -3 -6 4 -8 13 -5 19 5 8 3 8 -6 0
-16 -15 -23 -46 -8 -37 6 4 1 -7 -12 -24 -12 -16 -20 -35 -16 -40 3 -6 1 -14
-5 -18 -8 -4 -9 -3 -5 4 4 7 5 12 2 12 -3 0 -10 -10 -17 -22 -10 -18 -9 -20 7
-14 14 4 13 1 -5 -12 -18 -15 -21 -21 -11 -27 9 -6 11 -4 5 5 -6 9 -4 11 4 5
9 -5 7 -13 -9 -30 -16 -17 -18 -24 -8 -28 9 -4 8 -6 -4 -6 -12 -1 -16 -8 -13
-22 3 -14 0 -19 -9 -16 -10 4 -11 -4 -6 -34 5 -24 3 -42 -3 -46 -5 -3 -7 -1
-3 5 3 6 2 13 -3 16 -14 9 -7 -19 9 -40 14 -16 13 -16 -10 -4 -23 12 -24 12
-11 -3 10 -13 10 -17 1 -17 -10 0 -10 -3 0 -15 7 -9 8 -15 2 -15 -5 0 -13 -7
-16 -16 -6 -15 -4 -15 10 -3 16 13 16 12 7 -6 -6 -11 -9 -29 -7 -40 3 -11 5
-27 6 -36 1 -10 8 -15 17 -11 8 3 12 1 8 -4 -3 -5 3 -10 13 -10 14 0 16 4 9
12 -7 8 -6 15 2 20 8 4 9 3 5 -4 -4 -7 -1 -12 9 -12 11 0 15 5 11 16 -3 8 -2
13 3 9 5 -3 12 1 14 7 4 10 6 10 6 1 1 -7 6 -13 12 -13 6 0 9 7 5 15 -3 8 -1
15 5 15 6 0 7 6 3 13 -5 8 -2 7 9 -2 15 -12 17 -12 11 3 -4 11 -1 16 10 16 9
0 16 5 16 11 0 5 -6 7 -12 3 -9 -5 -9 -2 1 9 15 18 26 23 16 7 -10 -17 8 -11
35 11 23 18 23 19 3 9 -13 -6 -23 -8 -23 -6 0 11 55 33 69 28 9 -3 11 0 6 8
-5 9 -4 11 4 6 9 -6 9 -11 1 -21 -9 -11 -7 -12 9 -8 14 3 21 1 21 -8 0 -11 2
-11 10 1 5 8 10 10 10 4 0 -5 -5 -15 -12 -22 -9 -9 -9 -12 0 -12 14 0 12 -21
-3 -32 -6 -5 -5 -8 3 -8 9 0 12 -10 10 -27 -2 -22 2 -28 22 -34 l25 -7 -24 -1
c-24 -1 -24 -1 -5 -17 10 -8 14 -13 7 -9 -18 9 -8 -31 16 -61 11 -14 17 -32
14 -40 -3 -8 3 -24 13 -36 13 -15 14 -19 4 -14 -8 4 -6 0 4 -8 11 -9 17 -16
13 -16 -4 0 1 -10 12 -22 15 -15 18 -25 10 -34 -7 -8 -2 -18 18 -33 21 -16 23
-20 8 -15 -15 4 -14 2 4 -9 15 -9 19 -16 11 -19 -9 -3 -7 -8 6 -18 14 -12 16
-12 9 -1 -5 10 -4 12 4 7 9 -6 9 -11 -1 -24 -7 -9 -8 -13 -3 -10 6 4 19 -1 30
-9 16 -13 17 -15 3 -10 -10 4 -18 2 -18 -3 0 -6 7 -10 16 -10 8 0 13 -4 10 -8
-3 -5 5 -15 19 -22 15 -8 21 -18 17 -28 -4 -12 -1 -14 13 -9 15 6 16 5 6 -7
-11 -13 -9 -15 9 -11 21 4 21 3 6 -14 -13 -15 -14 -18 -1 -18 8 0 12 4 10 8
-8 11 32 18 44 6 7 -7 9 -2 5 16 -3 22 -1 26 13 21 10 -3 7 2 -7 10 -16 10
-20 15 -10 16 9 0 16 8 17 18 1 9 4 28 6 42 2 14 -2 31 -7 39 -8 11 -8 13 2 7
6 -4 12 -3 12 1 0 5 -6 15 -12 22 -8 9 -8 11 -2 8 12 -7 22 11 30 51 3 16 1
21 -7 16 -8 -5 -9 -3 -5 5 5 7 15 10 23 6 13 -4 13 -3 4 9 -9 11 -9 15 1 19
10 4 10 8 -2 16 -13 9 -13 11 2 11 9 0 30 16 46 36 18 22 32 32 36 25 4 -6 4
-17 0 -23 -5 -9 -2 -9 9 1 15 12 17 11 17 -4 0 -11 5 -15 16 -11 8 3 12 2 9
-4 -6 -9 9 -15 29 -11 5 1 3 -5 -4 -14 -11 -13 -10 -14 5 -9 13 5 16 4 11 -4
-4 -7 -2 -12 4 -12 6 0 8 -4 5 -10 -3 -5 3 -10 15 -10 12 0 19 -4 16 -8 -3 -5
4 -15 15 -22 20 -15 27 -36 7 -24 -6 4 -8 3 -5 -3 4 -6 18 -8 32 -5 15 2 25 0
25 -7 0 -7 -4 -10 -9 -6 -5 3 -12 1 -15 -4 -4 -5 5 -8 19 -7 13 2 22 -1 19 -5
-3 -5 0 -9 6 -9 7 0 10 -6 7 -14 -4 -10 1 -13 19 -11 19 2 24 -1 19 -13 -4
-12 -2 -12 8 -4 14 12 27 6 27 -12 0 -6 -5 -4 -10 4 -6 9 -10 10 -10 3 0 -6 6
-15 12 -19 18 -12 48 -12 41 -1 -3 5 4 4 16 -2 11 -7 21 -14 21 -17 0 -3 -5
-2 -12 2 -7 4 -8 3 -4 -5 6 -9 11 -9 21 -1 13 11 48 3 40 -10 -3 -4 4 -10 15
-13 11 -3 18 -1 14 4 -3 5 0 9 5 9 6 0 11 -5 11 -11 0 -6 6 -9 13 -6 17 6 49
-12 41 -24 -4 -6 4 -5 17 2 23 12 23 11 9 -7 -15 -18 -14 -18 12 -1 26 16 27
16 23 -2 -2 -10 3 -18 10 -18 8 0 12 5 9 11 -3 6 1 4 8 -6 8 -9 23 -18 33 -20
11 -1 23 -7 27 -13 5 -6 8 -4 8 5 0 9 8 3 19 -14 18 -27 19 -27 25 -8 4 11 14
26 23 34 15 12 15 11 4 -10 -7 -13 -11 -26 -8 -28 2 -2 9 7 15 21 10 22 8 28
-23 60 -34 33 -46 53 -25 40 6 -3 7 1 4 9 -3 9 -10 13 -15 10 -5 -3 -9 0 -9 6
0 6 -5 8 -12 4 -9 -5 -9 -2 1 9 11 15 11 17 -2 17 -8 0 -21 8 -28 18 -13 16
-13 16 5 2 18 -14 18 -14 6 7 -8 12 -17 20 -21 17 -10 -6 -20 26 -12 39 3 7 3
9 -2 5 -4 -4 -14 0 -22 10 -8 9 -11 11 -7 3 5 -10 3 -12 -5 -7 -7 5 -10 14 -7
21 3 8 -4 17 -15 20 -12 4 -18 13 -15 20 3 10 0 12 -11 8 -11 -4 -14 -2 -9 5
4 7 1 12 -9 12 -11 0 -15 5 -11 16 3 8 2 13 -2 11 -10 -7 -32 19 -24 29 4 5
-1 2 -11 -5 -15 -12 -17 -12 -10 4 5 15 3 17 -12 12 -16 -7 -16 -5 -4 10 8 9
9 14 3 10 -7 -4 -18 1 -25 10 -8 10 -9 14 -2 10 6 -4 14 -4 17 1 2 4 -7 9 -22
10 -15 1 -33 10 -42 19 -11 13 -11 14 0 5 7 -6 19 -12 25 -12 5 0 2 5 -8 11
-9 6 -14 15 -11 21 4 7 2 8 -5 4 -13 -9 -44 12 -36 24 3 4 -2 11 -11 14 -8 3
-12 2 -9 -4 3 -6 1 -10 -6 -10 -7 0 -9 10 -7 25 3 13 2 22 -3 20 -12 -8 -39 6
-32 18 4 6 0 8 -10 4 -12 -4 -14 -2 -10 10 5 13 2 15 -11 10 -9 -4 -15 -3 -13
1 2 4 -8 18 -21 32 -14 14 -21 19 -17 11 5 -9 4 -12 -3 -8 -5 4 -8 16 -5 27 3
12 0 20 -6 20 -7 0 -9 -4 -6 -10 3 -5 2 -10 -4 -10 -5 0 -13 9 -16 20 -3 11
-11 20 -16 20 -6 0 -7 5 -3 12 5 8 2 9 -9 5 -16 -6 -22 3 -18 26 1 5 -2 6 -6
4 -11 -6 -53 39 -45 49 4 4 -1 4 -10 1 -11 -4 -18 -1 -18 7 0 7 -10 18 -22 25
-19 9 -19 11 -3 6 20 -5 20 -5 1 10 -11 8 -23 15 -28 15 -4 0 -8 7 -8 15 0 9
-10 20 -22 25 -14 5 -17 9 -8 10 9 1 6 5 -8 10 -14 6 -22 17 -20 27 2 10 -7
22 -20 29 -17 8 -20 13 -10 17 7 3 2 6 -11 6 -21 1 -22 3 -10 18 12 15 12 16
-3 11 -10 -4 -19 -1 -22 8 -4 10 -2 12 6 8 7 -4 8 -3 4 4 -4 7 -14 12 -23 12
-13 0 -13 3 -3 16 11 12 11 15 -1 12 -8 -2 -13 3 -11 11 2 9 -3 11 -14 7 -12
-4 -15 -2 -10 9 3 8 1 15 -4 15 -6 0 -9 5 -7 11 1 6 -5 14 -13 16 -13 4 -13 3
0 -6 8 -6 10 -11 4 -11 -6 0 -18 8 -25 17 -10 11 -10 14 -1 9 6 -4 12 -2 12 3
0 10 -14 15 -33 12 -5 -1 -6 3 -2 9 3 5 1 18 -4 27 -6 10 -11 14 -11 10 0 -4
-11 3 -24 15 -13 13 -21 27 -18 32 3 5 0 6 -7 2 -13 -8 -30 7 -50 46 -8 16
-16 26 -19 23 -3 -2 1 -11 8 -20 11 -13 10 -14 -3 -9 -9 3 -17 11 -19 17 -2 7
-13 11 -25 9z m427 -965 c0 -2 -10 -12 -21 -23 -22 -19 -22 -19 -10 4 10 18
31 31 31 19z m-75 -136 c3 -5 2 -12 -3 -15 -5 -3 -9 1 -9 9 0 17 3 19 12 6z
m-20 -113 c-1 -12 -7 -23 -14 -24 -6 -1 -7 0 -1 3 5 2 8 9 4 14 -3 5 -2 14 1
19 9 15 12 12 10 -12z"/>
<path d="M2474 1319 c-19 -22 -19 -22 4 -8 12 8 22 17 22 21 0 12 -6 9 -26
-13z"/>
<path d="M1170 1296 c0 -2 8 -10 18 -17 15 -13 16 -12 3 4 -13 16 -21 21 -21
13z"/>
<path d="M247 1133 c6 -16 -9 -17 -26 0 -10 10 -11 9 -6 -5 5 -12 1 -20 -10
-24 -13 -6 -14 -9 -3 -16 9 -7 7 -8 -9 -5 -15 3 -23 0 -23 -8 0 -8 -8 -19 -17
-24 -17 -10 -16 -10 2 -11 l20 -1 -20 -8 c-11 -5 -24 -6 -28 -4 -5 3 -3 -5 4
-18 11 -22 11 -23 -5 -10 -14 12 -16 12 -11 -1 3 -8 -1 -20 -9 -27 -8 -7 -12
-20 -9 -28 4 -11 2 -14 -5 -9 -12 7 -9 -24 4 -47 6 -9 5 -9 -7 0 -12 10 -15 8
-15 -10 0 -12 5 -25 10 -29 6 -4 0 -8 -14 -9 -23 0 -23 -1 -5 -9 18 -8 18 -9
2 -9 -17 -1 -17 -2 -3 -17 14 -14 14 -34 0 -34 -3 0 -3 4 1 9 3 5 0 13 -7 17
-7 4 -10 4 -6 -1 4 -4 3 -14 -4 -22 -9 -11 -8 -13 2 -11 7 2 15 -3 18 -11 2
-8 0 -11 -6 -7 -6 3 -13 2 -17 -4 -6 -9 8 -15 29 -11 5 1 4 -4 -3 -12 -6 -8
-10 -27 -7 -42 4 -21 2 -26 -11 -21 -12 5 -13 4 -5 -7 7 -8 9 -17 5 -20 -3 -4
-1 -7 6 -7 7 0 9 -5 6 -10 -4 -6 -11 -7 -17 -4 -7 4 -8 2 -4 -5 4 -6 12 -8 18
-5 7 4 8 2 4 -4 -4 -6 -9 -25 -11 -42 -3 -27 -1 -30 17 -24 13 4 18 2 14 -4
-3 -6 -2 -14 4 -17 6 -4 9 -1 8 7 -2 7 5 12 14 12 10 -1 17 1 16 5 -2 19 3 31
12 26 6 -3 10 -1 10 5 0 6 5 8 12 4 8 -5 9 -2 4 12 -4 10 -4 15 0 12 3 -4 13
0 21 8 9 8 18 12 21 9 4 -3 0 -10 -8 -15 -8 -6 -10 -10 -5 -10 6 0 16 5 23 12
16 16 52 21 52 7 0 -5 -5 -7 -12 -3 -6 4 -8 3 -5 -4 4 -5 17 -8 29 -4 17 4 20
2 15 -13 -5 -13 -3 -16 8 -11 8 3 15 0 15 -6 0 -6 6 -5 17 3 15 12 16 12 10
-5 -6 -14 -4 -17 9 -12 14 5 15 4 4 -9 -11 -13 -10 -14 4 -9 11 4 23 -1 32
-12 15 -19 15 -19 10 0 -6 16 -4 17 9 6 8 -7 12 -17 8 -23 -3 -6 -1 -7 6 -3 6
4 8 12 5 18 -4 6 1 8 14 4 17 -6 20 -3 18 18 -2 14 1 23 6 20 5 -3 14 -1 21 4
7 5 20 8 30 6 14 -2 17 2 13 14 -4 10 3 6 15 -8 11 -14 18 -19 14 -12 -9 17
34 10 47 -9 8 -11 9 -11 4 4 -3 9 -1 17 4 17 6 0 10 -4 10 -9 0 -5 7 -12 16
-15 15 -6 15 -4 3 11 -8 9 3 5 23 -11 27 -20 43 -26 59 -21 14 5 19 4 15 -4
-11 -18 6 -13 20 6 13 17 14 17 8 -2 -6 -16 -4 -18 6 -8 19 17 15 62 -6 81
-10 10 -13 10 -6 3 6 -8 12 -20 12 -25 0 -6 -7 0 -16 12 -8 12 -13 26 -10 31
3 5 -4 11 -16 14 -18 5 -19 8 -8 22 7 9 9 15 4 14 -18 -4 -43 13 -37 27 3 9
-2 14 -13 15 -12 0 -14 2 -6 6 10 4 7 9 -10 17 -14 8 -22 19 -20 30 3 14 -1
17 -13 12 -13 -5 -15 -2 -10 14 4 11 3 20 -2 19 -23 -4 -33 3 -33 22 0 14 -5
19 -14 16 -11 -4 -13 -1 -9 10 4 11 2 14 -5 9 -12 -7 -16 5 -12 34 1 11 -1 12
-10 4 -9 -9 -17 -7 -31 7 -26 26 -24 36 4 13 l22 -19 -19 22 c-10 12 -21 22
-25 21 -19 -2 -24 4 -11 12 12 8 11 10 -7 10 -12 0 -28 9 -36 20 -8 11 -17 17
-22 12 -4 -4 -5 1 -2 11 4 11 1 17 -9 17 -9 0 -12 5 -8 12 4 7 3 8 -4 4 -12
-7 -49 8 -44 18 5 14 1 27 -7 22 -5 -3 -11 1 -15 9 -3 8 -12 15 -21 15 -8 0
-15 8 -15 18 0 14 -2 15 -10 2 -8 -13 -14 -8 -12 11 1 3 -5 6 -13 6 -7 0 -11
-6 -8 -14z m270 -558 c4 -4 3 -5 -4 -1 -6 3 -14 2 -18 -4 -4 -6 -11 -8 -16 -4
-5 3 -7 9 -4 14 6 10 31 7 42 -5z"/>
<path d="M2646 1068 c3 -5 10 -6 15 -3 13 9 11 12 -6 12 -8 0 -12 -4 -9 -9z"/>
<path d="M445 1000 c-3 -5 -1 -10 4 -10 6 0 11 5 11 10 0 6 -2 10 -4 10 -3 0
-8 -4 -11 -10z"/>
<path d="M1620 920 c0 -5 5 -10 11 -10 5 0 7 5 4 10 -3 6 -8 10 -11 10 -2 0
-4 -4 -4 -10z"/>
<path d="M1645 740 c3 -5 8 -10 11 -10 2 0 4 5 4 10 0 6 -5 10 -11 10 -5 0 -7
-4 -4 -10z"/>
<path d="M2405 650 c-4 -6 -12 -7 -18 -3 -7 4 -5 -2 3 -12 8 -10 10 -16 3 -12
-14 9 -36 -26 -25 -39 4 -5 -1 -2 -10 5 -15 11 -17 10 -13 -9 3 -15 -3 -24
-18 -30 -12 -5 -16 -9 -8 -9 11 -1 10 -5 -5 -17 -10 -8 -14 -13 -8 -10 6 3 11
-1 11 -9 0 -8 -4 -12 -9 -9 -4 3 -8 0 -8 -6 0 -6 -4 -9 -9 -6 -4 3 -6 -6 -3
-19 3 -17 0 -25 -9 -25 -11 0 -11 -2 1 -10 8 -5 11 -10 6 -10 -5 0 -3 -7 4
-15 11 -13 10 -14 -2 -10 -10 4 -14 -2 -14 -19 0 -14 3 -23 7 -20 4 2 7 -10 7
-28 0 -52 1 -58 16 -58 8 0 17 -7 20 -16 6 -15 4 -15 -11 -3 -15 12 -15 11 1
-8 10 -13 24 -20 30 -16 6 4 4 -2 -4 -12 -8 -10 -10 -16 -5 -13 12 7 37 -17
28 -26 -4 -3 1 -6 11 -6 9 0 14 -4 11 -10 -3 -6 1 -7 9 -4 9 3 13 11 10 16 -4
6 4 5 16 -2 12 -6 24 -9 28 -6 3 3 0 6 -7 6 -7 0 -9 5 -6 10 4 6 10 8 15 5 5
-3 7 3 5 14 -3 14 1 18 16 14 13 -4 19 0 19 11 0 10 5 14 10 11 6 -4 18 -1 26
6 8 6 17 9 21 6 3 -4 15 -2 26 4 12 7 17 7 13 1 -3 -5 1 -13 10 -16 12 -5 15
-2 10 10 -5 14 -4 15 9 4 11 -9 15 -9 15 -1 0 7 5 9 10 6 6 -4 8 -11 5 -16 -3
-5 1 -6 9 -3 9 3 14 9 12 13 -2 3 6 6 19 6 17 0 21 -3 14 -12 -7 -7 -6 -13 0
-17 5 -4 12 -2 16 4 9 15 27 1 21 -17 -3 -8 -1 -11 4 -8 6 3 10 14 11 23 0 11
2 12 6 4 2 -6 10 -9 16 -5 7 4 6 -1 -2 -10 -8 -10 -11 -20 -7 -24 3 -3 6 -1 6
5 0 18 21 14 46 -9 l22 -21 11 21 c8 14 9 27 2 40 -6 10 -8 21 -5 23 2 3 -7 4
-21 3 -14 -2 -23 1 -19 6 3 5 10 6 16 3 7 -4 8 -2 4 5 -4 6 -11 9 -16 6 -4 -3
-14 3 -21 12 -12 14 -12 16 1 9 8 -4 4 2 -10 14 -14 12 -19 19 -13 15 8 -4 11
-1 7 9 -3 8 -12 12 -19 10 -7 -3 -16 0 -21 7 -5 8 -3 10 6 4 9 -5 11 -4 6 3
-4 7 -13 12 -21 12 -9 0 -12 8 -10 21 4 17 2 19 -10 9 -12 -10 -15 -9 -16 6
-1 11 -1 22 0 26 0 4 -7 4 -16 1 -10 -4 -14 -2 -9 5 3 6 -3 17 -14 25 -11 7
-17 17 -12 21 4 4 3 7 -3 5 -5 -1 -18 1 -28 6 -15 6 -16 10 -5 17 9 7 6 8 -10
5 -18 -4 -21 -3 -13 7 11 13 5 26 -11 26 -5 0 -6 -6 -2 -12 4 -8 3 -10 -2 -5
-5 5 -10 13 -10 18 -1 5 -2 12 -3 15 0 4 -7 1 -15 -5 -12 -10 -14 -8 -9 11 4
18 3 20 -6 8 -9 -12 -11 -11 -11 8 0 13 -4 20 -10 17 -11 -7 -56 21 -52 33 1
4 -1 7 -5 7 -5 0 -13 4 -20 8 -6 4 -14 3 -18 -3z"/>
<path d="M2963 611 c0 -11 5 -18 9 -15 4 3 5 11 1 19 -7 21 -12 19 -10 -4z"/>
<path d="M3016 487 c3 -10 9 -15 12 -12 3 3 0 11 -7 18 -10 9 -11 8 -5 -6z"/>
<path d="M3795 290 c3 -5 8 -10 11 -10 2 0 4 5 4 10 0 6 -5 10 -11 10 -5 0 -7
-4 -4 -10z"/>
<path d="M2868 198 c-6 -16 1 -38 12 -38 5 0 7 10 5 21 -6 28 -11 33 -17 17z"/>
</g>
</svg>
